<?xml version="1.0" encoding="UTF-8"?>
<svg class="" enable-background="new 0 0 512 512" version="1.1" viewBox="0 0 512 512" xml:space="preserve" xmlns="http://www.w3.org/2000/svg"><path class="" d="m416 512h-320c-53.023 0-96-42.977-96-96v-320c0-53.023 42.977-96 96-96h320c53.023 0 96 42.977 96 96v320c0 53.023-42.977 96-96 96z" fill="#a1d4e2" style="" data-original="#fff9dd" xmlns="http://www.w3.org/2000/svg"/><path class="" d="m281.3 313.3c-6.0508 6.0469-14.082 9.375-22.625 9.375s-16.574-3.3281-22.625-9.375l-45.328-45.328c-6.0469-6.0469-9.375-14.082-9.375-22.625s3.3281-16.574 9.375-22.625c6.0508-6.0469 14.082-9.375 22.625-9.375s16.578 3.3281 22.625 9.375l22.703 22.707 62.688-62.691c-20.48-17.453-46.992-28.062-76.031-28.062-64.801 0-117.33 52.527-117.33 117.33s52.527 117.33 117.33 117.33 117.34-52.527 117.34-117.33c0-12.129-1.8398-23.824-5.2656-34.832z" fill="#2a93d4" style="" data-original="#ffd200" xmlns="http://www.w3.org/2000/svg"/><path class="" d="m258.67 301.33c-2.7344 0-5.457-1.0391-7.5352-3.1211l-45.328-45.328c-4.1602-4.1602-4.1602-10.91 0-15.086s10.91-4.1602 15.086 0l37.793 37.793 107.12-107.12c4.1602-4.1602 10.91-4.1602 15.086 0s4.1602 10.91 0 15.086l-114.67 114.67c-2.0938 2.0664-4.832 3.1055-7.5508 3.1055z" fill="#00416d" style="" data-original="#ffe777" xmlns="http://www.w3.org/2000/svg"/></svg>
