<?xml version="1.0" encoding="UTF-8"?>
<svg class="" enable-background="new 0 0 512 512" version="1.1" viewBox="0 0 512 512" xml:space="preserve" xmlns="http://www.w3.org/2000/svg"><path class="" d="m416 512h-320c-53.023 0-96-42.977-96-96v-320c0-53.023 42.977-96 96-96h320c53.023 0 96 42.977 96 96v320c0 53.023-42.977 96-96 96z" fill="#a1d4e2" style="" data-original="#fff9dd" xmlns="http://www.w3.org/2000/svg"/><path class="" d="m277.65 181.63-135.5 135.49c-0.6875 0.6875-1.168 1.5352-1.4102 2.4805l-15.023 60.27c-0.44531 1.8242 0.082031 3.7461 1.4102 5.0586 1.0078 1.0078 2.3672 1.5664 3.7734 1.5664 0.43359 0 0.86719-0.046875 1.2969-0.16016l60.273-15.023c0.94141-0.24219 1.793-0.71875 2.4805-1.4102l135.49-135.49z" fill="#00416d" style="" data-original="#ffd200" xmlns="http://www.w3.org/2000/svg"/><path class="" d="m364 163.15-15.09-15.09c-10.078-10.078-27.645-10.062-37.711 0l-18.48 18.48 52.801 52.801 18.48-18.48c5.0391-5.0391 7.8086-11.727 7.8086-18.863 0-7.1211-2.7695-13.809-7.8086-18.848z" fill="#2a93d4" style="" data-original="#ffe777" xmlns="http://www.w3.org/2000/svg"/></svg>
