<?xml version="1.0" encoding="UTF-8"?>
<svg class="" enable-background="new 0 0 512 512" version="1.1" viewBox="0 0 512 512" xml:space="preserve" xmlns="http://www.w3.org/2000/svg"><path class="" d="m416 512h-320c-53.023 0-96-42.977-96-96v-320c0-53.023 42.977-96 96-96h320c53.023 0 96 42.977 96 96v320c0 53.008-42.992 96-96 96z" fill="#a1d4e2" style="" data-original="#ffe6e2" xmlns="http://www.w3.org/2000/svg"/><path class="" d="m383.33 255.33c0 70.691-57.309 128-128 128s-128-57.309-128-128 57.309-128 128-128 128 57.309 128 128z" fill="#00416d" style="" data-original="#fc573b" xmlns="http://www.w3.org/2000/svg"/><path class="" d="m338 266h-82.672c-5.8867 0-10.672-4.7852-10.672-10.672v-82.672c0-5.8867 4.7695-10.672 10.672-10.672 5.8867 0 10.672 4.7852 10.672 10.672v72h72c5.8867 0 10.672 4.7852 10.672 10.672s-4.7852 10.672-10.672 10.672z" fill="#00416d" style="" data-original="#fd907e" xmlns="http://www.w3.org/2000/svg"/></svg>
